<svg version="1.1" viewBox="0.0 0.0 412.8005249343832 480.0" fill="none" stroke="none" stroke-linecap="square" stroke-miterlimit="10" xmlns:xlink="http://www.w3.org/1999/xlink" xmlns="http://www.w3.org/2000/svg"><clipPath id="g37923a138be_0_0.0"><path d="m0 0l412.80054 0l0 480.0l-412.80054 0l0 -480.0z" clip-rule="nonzero"/></clipPath><g clip-path="url(#g37923a138be_0_0.0)"><path fill="#000000" fill-opacity="0.0" d="m0 0l412.80054 0l0 480.0l-412.80054 0z" fill-rule="evenodd"/><path fill="#3d85c6" d="m339.8282 405.88556l0 0c21.091187 -15.463959 44.005737 -20.491058 51.18109 -11.2283325l0 0c3.4457397 4.44812 2.7268677 11.664032 -1.9984741 20.060364c-4.7253113 8.396301 -13.070038 17.285217 -23.198364 24.711273l0 0c-21.091187 15.463989 -44.005768 20.491089 -51.18112 11.228363l0 0c-7.175354 -9.262726 4.1056824 -29.307678 25.196869 -44.771667z" fill-rule="evenodd"/><path stroke="#efefef" stroke-width="22.349081364829395" stroke-linejoin="round" stroke-linecap="butt" d="m339.8282 405.88556l0 0c21.091187 -15.463959 44.005737 -20.491058 51.18109 -11.2283325l0 0c3.4457397 4.44812 2.7268677 11.664032 -1.9984741 20.060364c-4.7253113 8.396301 -13.070038 17.285217 -23.198364 24.711273l0 0c-21.091187 15.463989 -44.005768 20.491089 -51.18112 11.228363l0 0c-7.175354 -9.262726 4.1056824 -29.307678 25.196869 -44.771667z" fill-rule="evenodd"/><path fill="#3d85c6" d="m91.8258 208.93398l127.98423 -92.064224l171.65906 278.39502l-76.79056 55.238525z" fill-rule="evenodd"/><path stroke="#efefef" stroke-width="22.349081364829395" stroke-linejoin="round" stroke-linecap="butt" d="m91.8258 208.93398l127.98423 -92.064224l171.65906 278.39502l-76.79056 55.238525z" fill-rule="evenodd"/><path fill="#3d85c6" d="m20.089548 140.12611l0 0c0 -65.273964 53.08422 -118.18897 118.56693 -118.18897l0 0c31.445908 0 61.603867 12.452019 83.83948 34.61675c22.235611 22.16473 34.727463 52.22656 34.727463 83.57222l0 0c0 65.27397 -53.08423 118.18898 -118.56694 118.18898l0 0c-65.48271 0 -118.56693 -52.91501 -118.56693 -118.18898z" fill-rule="evenodd"/><path stroke="#efefef" stroke-width="22.349081364829395" stroke-linejoin="round" stroke-linecap="butt" d="m20.089548 140.12611l0 0c0 -65.273964 53.08422 -118.18897 118.56693 -118.18897l0 0c31.445908 0 61.603867 12.452019 83.83948 34.61675c22.235611 22.16473 34.727463 52.22656 34.727463 83.57222l0 0c0 65.27397 -53.08423 118.18898 -118.56694 118.18898l0 0c-65.48271 0 -118.56693 -52.91501 -118.56693 -118.18898z" fill-rule="evenodd"/><path fill="#3d85c6" d="m332.54544 396.13513l0 0c16.64682 -12.202454 35.71173 -14.909882 42.582672 -6.047241l0 0c3.29953 4.2559814 3.2882996 10.665466 -0.03125 17.81845c-3.319519 7.152954 -9.675446 14.46347 -17.669556 20.323273l0 0c-16.64682 12.202454 -35.71173 14.909912 -42.582672 6.047241l0 0c-6.870941 -8.86264 1.0539856 -25.93927 17.700806 -38.141724z" fill-rule="evenodd"/></g></svg>