<svg version="1.1" viewBox="0.0 0.0 412.8005249343832 480.0" fill="none" stroke="none" stroke-linecap="square" stroke-miterlimit="10" xmlns:xlink="http://www.w3.org/1999/xlink" xmlns="http://www.w3.org/2000/svg"><clipPath id="g37923a138be_0_0.0"><path d="m0 0l412.80054 0l0 480.0l-412.80054 0l0 -480.0z" clip-rule="nonzero"/></clipPath><g clip-path="url(#g37923a138be_0_0.0)"><path fill="#000000" fill-opacity="0.0" d="m0 0l412.80054 0l0 480.0l-412.80054 0z" fill-rule="evenodd"/><path fill="#3d85c6" d="m349.03748 417.90585l0 0c22.64804 -16.61203 47.25476 -22.019836 54.960632 -12.078735l0 0c3.7005005 4.7738953 2.9289856 12.521271 -2.1448364 21.53778c-5.073822 9.01651 -14.034302 18.563599 -24.910278 26.540955l0 0c-22.64801 16.61203 -47.25473 22.019867 -54.960632 12.078766l0 0c-7.7058716 -9.941132 4.4071045 -31.466736 27.055115 -48.078766z" fill-rule="evenodd"/><path fill="#3d85c6" d="m82.71056 206.39409l137.43954 -98.86556l184.34099 298.9617l-82.463715 59.319336z" fill-rule="evenodd"/><path fill="#3d85c6" d="m5.6745405 132.49606l0 0c0 -70.09233 57.004375 -126.91338 127.32284 -126.91338l0 0c33.768112 0 66.15318 13.371193 90.03084 37.17207c23.87767 23.80088 37.292007 56.081795 37.292007 89.74132l0 0c0 70.09233 -57.00438 126.91339 -127.322845 126.91339l0 0c-70.31846 0 -127.32284 -56.82106 -127.32284 -126.91339z" fill-rule="evenodd"/><path stroke="#ffffff" stroke-width="2.706036745406824" stroke-linejoin="round" stroke-linecap="butt" d="m5.6745405 132.49606l0 0c0 -70.09233 57.004375 -126.91338 127.32284 -126.91338l0 0c33.768112 0 66.15318 13.371193 90.03084 37.17207c23.87767 23.80088 37.292007 56.081795 37.292007 89.74132l0 0c0 70.09233 -57.00438 126.91339 -127.322845 126.91339l0 0c-70.31846 0 -127.32284 -56.82106 -127.32284 -126.91339z" fill-rule="evenodd"/></g></svg>