<svg version="1.1" viewBox="0.0 0.0 960.0 540.0" fill="none" stroke="none" stroke-linecap="square" stroke-miterlimit="10" xmlns:xlink="http://www.w3.org/1999/xlink" xmlns="http://www.w3.org/2000/svg"><clipPath id="g37923a138be_0_0.0"><path d="m0 0l960.0 0l0 540.0l-960.0 0l0 -540.0z" clip-rule="nonzero"/></clipPath><g clip-path="url(#g37923a138be_0_0.0)"><path fill="#ffffff" d="m0 0l960.0 0l0 540.0l-960.0 0z" fill-rule="evenodd"/><path fill="#3d85c6" d="m342.52493 282.65878l0 0c11.541443 -8.697388 24.077484 -11.531738 28.0 -6.3306885l0 0c1.883667 2.4976196 1.4884644 6.552124 -1.0986328 11.271545c-2.5871277 4.7194214 -7.154236 9.717163 -12.696625 13.893799l0 0c-11.541473 8.697388 -24.077484 11.531738 -28.0 6.330719l0 0c-3.9225464 -5.20105 2.2538147 -16.467957 13.795258 -25.165375z" fill-rule="evenodd"/><path fill="#3d85c6" d="m206.7219 171.90439l70.07626 -51.77038l93.98987 156.54959l-42.045746 31.062225z" fill-rule="evenodd"/><path fill="#3d85c6" d="m167.44357 133.20735l0 0c0 -36.70302 29.055664 -66.456696 64.89763 -66.456696l0 0c17.21193 0 33.718887 7.001671 45.889572 19.464714c12.170654 12.463051 19.008057 29.36657 19.008057 46.99198l0 0c0 36.70302 -29.055634 66.456696 -64.89763 66.456696l0 0c-35.841965 0 -64.89763 -29.753677 -64.89763 -66.456696z" fill-rule="evenodd"/><path stroke="#ffffff" stroke-width="2.0" stroke-linejoin="round" stroke-linecap="butt" d="m167.44357 133.20735l0 0c0 -36.70302 29.055664 -66.456696 64.89763 -66.456696l0 0c17.21193 0 33.718887 7.001671 45.889572 19.464714c12.170654 12.463051 19.008057 29.36657 19.008057 46.99198l0 0c0 36.70302 -29.055634 66.456696 -64.89763 66.456696l0 0c-35.841965 0 -64.89763 -29.753677 -64.89763 -66.456696z" fill-rule="evenodd"/></g></svg>